<svg width="35" height="35" viewBox="0 0 35 35" fill="none" xmlns="http://www.w3.org/2000/svg">
<path fill-rule="evenodd" clip-rule="evenodd" d="M17.5 13.1667C15.1068 13.1667 13.1667 15.1068 13.1667 17.5001C13.1667 19.8933 15.1068 21.8334 17.5 21.8334C19.8932 21.8334 21.8333 19.8933 21.8333 17.5001C21.8333 15.1068 19.8932 13.1667 17.5 13.1667ZM10.1667 17.5001C10.1667 13.45 13.4499 10.1667 17.5 10.1667C21.5501 10.1667 24.8333 13.45 24.8333 17.5001C24.8333 21.5502 21.5501 24.8334 17.5 24.8334C13.4499 24.8334 10.1667 21.5502 10.1667 17.5001Z" fill="#6B7280"/>
<path fill-rule="evenodd" clip-rule="evenodd" d="M10.6281 2.95946C13.9101 1.40851 17.6202 1.01339 21.1552 1.83834C24.6901 2.6633 27.8421 4.65982 30.0985 7.50327C32.3549 10.3467 33.5831 13.8699 33.5833 17.4998L33.5833 17.4999V18.9582C33.5833 20.5164 32.9644 22.0107 31.8626 23.1125C30.7608 24.2143 29.2665 24.8332 27.7083 24.8332C26.1502 24.8332 24.6559 24.2143 23.5541 23.1125C22.4523 22.0107 21.8333 20.5164 21.8333 18.9582V11.6666C21.8333 10.8381 22.5049 10.1666 23.3333 10.1666C24.1618 10.1666 24.8333 10.8381 24.8333 11.6666V18.9582C24.8333 19.7207 25.1362 20.452 25.6754 20.9912C26.2146 21.5303 26.9458 21.8332 27.7083 21.8332C28.4708 21.8332 29.2021 21.5303 29.7413 20.9912C30.2804 20.452 30.5833 19.7207 30.5833 18.9582V17.5C30.5833 17.5 30.5833 17.4999 30.5833 17.4999C30.5831 14.5471 29.584 11.6811 27.7485 9.3681C25.913 7.05504 23.349 5.43092 20.4734 4.75984C17.5978 4.08876 14.5797 4.41018 11.9099 5.67184C9.24018 6.9335 7.07572 9.0612 5.76851 11.709C4.4613 14.3567 4.08823 17.3688 4.70995 20.2555C5.33167 23.1422 6.91163 25.7337 9.19291 27.6085C11.4742 29.4834 14.3226 30.5315 17.2751 30.5822C20.2275 30.633 23.1103 29.6835 25.4547 27.8882C26.1124 27.3845 27.0539 27.5094 27.5576 28.1671C28.0613 28.8248 27.9364 29.7663 27.2787 30.27C24.3967 32.477 20.8529 33.6442 17.2235 33.5818C13.5941 33.5194 10.0925 32.231 7.28809 29.9262C4.48372 27.6214 2.54148 24.4357 1.7772 20.8871C1.01292 17.3386 1.47154 13.6358 3.07849 10.3809C4.68544 7.12599 7.34621 4.51042 10.6281 2.95946Z" fill="#6B7280"/>
</svg>
