<svg width="35" height="35" viewBox="0 0 35 35" fill="none" xmlns="http://www.w3.org/2000/svg">
<path fill-rule="evenodd" clip-rule="evenodd" d="M16.6825 1.65908C17.1796 1.33597 17.8204 1.33597 18.3175 1.65908L32.9008 11.1382C33.3265 11.4149 33.5833 11.8882 33.5833 12.3959V22.6042C33.5833 23.112 33.3265 23.5852 32.9008 23.8619L18.3175 33.3411C17.8204 33.6642 17.1796 33.6642 16.6825 33.3411L2.09919 23.8619C1.6735 23.5852 1.41667 23.112 1.41667 22.6042V12.3959C1.41667 11.8882 1.6735 11.4149 2.09919 11.1382L16.6825 1.65908ZM4.41667 13.2099V21.7902L17.5 30.2944L30.5833 21.7902V13.2099L17.5 4.70578L4.41667 13.2099Z" fill="#6B7280"/>
<path fill-rule="evenodd" clip-rule="evenodd" d="M17.5 21.1042C18.3284 21.1042 19 21.7758 19 22.6042V32.0834C19 32.9118 18.3284 33.5834 17.5 33.5834C16.6716 33.5834 16 32.9118 16 32.0834V22.6042C16 21.7758 16.6716 21.1042 17.5 21.1042Z" fill="#6B7280"/>
<path fill-rule="evenodd" clip-rule="evenodd" d="M1.68782 11.5357C2.16289 10.857 3.09819 10.692 3.77686 11.167L17.5 20.7732L31.2231 11.167C31.9018 10.692 32.8371 10.857 33.3122 11.5357C33.7873 12.2144 33.6222 13.1497 32.9435 13.6247L18.3602 23.8331C17.8437 24.1946 17.1563 24.1946 16.6398 23.8331L2.05647 13.6247C1.3778 13.1497 1.21275 12.2144 1.68782 11.5357Z" fill="#6B7280"/>
<path fill-rule="evenodd" clip-rule="evenodd" d="M16.6398 11.1669C17.1563 10.8054 17.8437 10.8054 18.3602 11.1669L32.9435 21.3752C33.6222 21.8503 33.7873 22.7856 33.3122 23.4643C32.8371 24.143 31.9018 24.308 31.2231 23.8329L17.5 14.2267L3.77686 23.8329C3.09819 24.308 2.16289 24.143 1.68782 23.4643C1.21275 22.7856 1.3778 21.8503 2.05647 21.3752L16.6398 11.1669Z" fill="#6B7280"/>
<path fill-rule="evenodd" clip-rule="evenodd" d="M17.5 1.41675C18.3284 1.41675 19 2.08832 19 2.91675V12.3959C19 13.2243 18.3284 13.8959 17.5 13.8959C16.6716 13.8959 16 13.2243 16 12.3959V2.91675C16 2.08832 16.6716 1.41675 17.5 1.41675Z" fill="#6B7280"/>
</svg>
