<svg width="35" height="35" viewBox="0 0 35 35" fill="none" xmlns="http://www.w3.org/2000/svg">
<path fill-rule="evenodd" clip-rule="evenodd" d="M17.5 4.41675C10.2743 4.41675 4.41667 10.2744 4.41667 17.5001C4.41667 24.7258 10.2743 30.5834 17.5 30.5834C24.7257 30.5834 30.5833 24.7258 30.5833 17.5001C30.5833 10.2744 24.7257 4.41675 17.5 4.41675ZM1.41667 17.5001C1.41667 8.6175 8.61743 1.41675 17.5 1.41675C26.3826 1.41675 33.5833 8.6175 33.5833 17.5001C33.5833 26.3827 26.3826 33.5834 17.5 33.5834C8.61743 33.5834 1.41667 26.3827 1.41667 17.5001Z" fill="#6B7280"/>
<path fill-rule="evenodd" clip-rule="evenodd" d="M11.6031 2.79578C12.2739 2.30965 13.2118 2.45935 13.6979 3.13014C16.0167 6.32981 17.8394 9.05748 19.3602 11.8242C22.2877 10.5948 24.6978 8.85703 26.7579 6.44797C27.2963 5.81837 28.2432 5.74445 28.8728 6.28287C29.5024 6.82129 29.5763 7.76815 29.0379 8.39775C26.6728 11.1634 23.9294 13.1262 20.7305 14.5022C20.8189 14.6887 20.9062 14.8761 20.9926 15.0646C21.2065 15.531 21.4141 16.0028 21.6162 16.4822C24.7069 16.0424 28.2908 16.262 32.1039 17.2752C32.9046 17.488 33.3812 18.3095 33.1684 19.1101C32.9557 19.9108 32.1342 20.3874 31.3335 20.1746C28.1423 19.3267 25.2212 19.1132 22.7358 19.3675C23.7666 22.2534 24.6845 25.5055 25.6516 29.499C25.8466 30.3041 25.3519 31.1149 24.5468 31.3099C23.7416 31.5049 22.9309 31.0102 22.7359 30.2051C21.7321 26.0603 20.7988 22.7972 19.7564 19.9502C19.5611 20.0094 19.3702 20.0721 19.184 20.1382C15.7991 21.3455 12.4836 23.9272 9.05876 28.8037C8.58263 29.4816 7.64708 29.6452 6.96915 29.1691C6.29121 28.693 6.12761 27.7575 6.60373 27.0795C10.266 21.8649 14.0377 18.7883 18.1774 17.3121L18.1795 17.3114C18.3314 17.2574 18.4853 17.2055 18.6411 17.1555C18.518 16.8726 18.393 16.5926 18.2657 16.315C18.1457 16.0535 18.0237 15.7938 17.8994 15.5355C13.7634 16.8021 8.94645 17.319 3.31713 17.4537C2.48894 17.4735 1.80149 16.8182 1.78167 15.99C1.76185 15.1618 2.41717 14.4744 3.24536 14.4545C8.51704 14.3284 12.8531 13.8602 16.4844 12.8256C15.0966 10.3598 13.4219 7.86166 11.2687 4.89058C10.7826 4.21979 10.9323 3.28191 11.6031 2.79578Z" fill="#6B7280"/>
</svg>
