<svg width="20" height="33" viewBox="0 0 20 33" fill="none" xmlns="http://www.w3.org/2000/svg">
<path fill-rule="evenodd" clip-rule="evenodd" d="M7.65835 2.99177C9.30711 1.34301 11.5433 0.416748 13.875 0.416748H18.25C19.0784 0.416748 19.75 1.08832 19.75 1.91675V7.75008C19.75 8.57851 19.0784 9.25008 18.25 9.25008H13.9167V12.0834H18.25C18.7119 12.0834 19.148 12.2962 19.4323 12.6603C19.7166 13.0244 19.8172 13.4991 19.7052 13.9472L18.2469 19.7806C18.0799 20.4483 17.48 20.9167 16.7917 20.9167H13.9167V31.0834C13.9167 31.9118 13.2451 32.5834 12.4167 32.5834H6.58333C5.75491 32.5834 5.08333 31.9118 5.08333 31.0834V20.9167H2.20833C1.3799 20.9167 0.708332 20.2452 0.708332 19.4167V13.5834C0.708332 12.755 1.3799 12.0834 2.20833 12.0834H5.08333V9.20841C5.08333 6.87672 6.00959 4.64052 7.65835 2.99177ZM13.875 3.41675C12.339 3.41675 10.8658 4.02694 9.77967 5.11309C8.69352 6.19924 8.08333 7.67237 8.08333 9.20841V13.5834C8.08333 14.4118 7.41176 15.0834 6.58333 15.0834H3.70833V17.9167H6.58333C7.41176 17.9167 8.08333 18.5883 8.08333 19.4167V29.5834H10.9167V19.4167C10.9167 18.5883 11.5882 17.9167 12.4167 17.9167H15.6205L16.3288 15.0834H12.4167C11.5882 15.0834 10.9167 14.4118 10.9167 13.5834V9.20841C10.9167 8.42381 11.2283 7.67135 11.7831 7.11656C12.3379 6.56176 13.0904 6.25008 13.875 6.25008H16.75V3.41675H13.875Z" fill="#6B7280"/>
</svg>
