<svg width="35" height="35" viewBox="0 0 35 35" fill="none" xmlns="http://www.w3.org/2000/svg">
<path fill-rule="evenodd" clip-rule="evenodd" d="M10.2083 4.41675C7.00969 4.41675 4.41667 7.00977 4.41667 10.2084V24.7917C4.41667 27.9904 7.00969 30.5834 10.2083 30.5834H24.7917C27.9903 30.5834 30.5833 27.9904 30.5833 24.7917V10.2084C30.5833 7.00977 27.9903 4.41675 24.7917 4.41675H10.2083ZM1.41667 10.2084C1.41667 5.35291 5.35283 1.41675 10.2083 1.41675H24.7917C29.6472 1.41675 33.5833 5.35291 33.5833 10.2084V24.7917C33.5833 29.6472 29.6472 33.5834 24.7917 33.5834H10.2083C5.35283 33.5834 1.41667 29.6472 1.41667 24.7917V10.2084Z" fill="#6B7280"/>
<path fill-rule="evenodd" clip-rule="evenodd" d="M18.1987 13.1504C17.2971 13.0167 16.3763 13.1707 15.5673 13.5905C14.7583 14.0103 14.1022 14.6745 13.6924 15.4886C13.2826 16.3028 13.14 17.2254 13.2848 18.1253C13.4296 19.0252 13.8545 19.8565 14.499 20.501C15.1435 21.1455 15.9748 21.5704 16.8747 21.7152C17.7746 21.86 18.6972 21.7173 19.5113 21.3075C20.3255 20.8978 20.9897 20.2417 21.4095 19.4327C21.8293 18.6236 21.9833 17.7028 21.8496 16.8012C21.7132 15.8816 21.2847 15.0301 20.6272 14.3727C19.9698 13.7153 19.1184 13.2868 18.1987 13.1504ZM14.1856 10.9276C15.5547 10.2172 17.113 9.95659 18.6388 10.1828C20.1951 10.4136 21.636 11.1389 22.7486 12.2514C23.8611 13.364 24.5863 14.8048 24.8171 16.3612C25.0434 17.887 24.7828 19.4452 24.0723 20.8144C23.3619 22.1835 22.2379 23.2938 20.8601 23.9872C19.4823 24.6807 17.9209 24.9221 16.3981 24.6771C14.8752 24.432 13.4683 23.713 12.3777 22.6223C11.287 21.5316 10.568 20.1248 10.3229 18.6019C10.0779 17.079 10.3192 15.5176 11.0127 14.1399C11.7062 12.7621 12.8165 11.638 14.1856 10.9276Z" fill="#6B7280"/>
<path fill-rule="evenodd" clip-rule="evenodd" d="M24.0208 9.47925C24.0208 8.65082 24.6924 7.97925 25.5208 7.97925H25.5354C26.3639 7.97925 27.0354 8.65082 27.0354 9.47925C27.0354 10.3077 26.3639 10.9792 25.5354 10.9792H25.5208C24.6924 10.9792 24.0208 10.3077 24.0208 9.47925Z" fill="#6B7280"/>
</svg>
