<svg width="35" height="31" viewBox="0 0 35 31" fill="none" xmlns="http://www.w3.org/2000/svg">
<path fill-rule="evenodd" clip-rule="evenodd" d="M21.1681 1.38845C22.7056 0.801628 24.3862 0.701148 25.9827 1.1006C27.244 1.41621 28.4048 2.03188 29.3691 2.88889C30.5415 2.45566 31.6537 1.87115 32.6771 1.14927L33.5417 2.37502L34.9991 2.72994C34.4993 4.78192 33.4991 6.67374 32.0928 8.2387C32.1135 8.46929 32.1242 8.70079 32.125 8.93256L32.125 8.93752C32.125 17.8478 27.8343 24.3886 21.6683 27.6705C15.5389 30.9329 7.70714 30.8958 0.729866 27.0196C0.122649 26.6822 -0.173519 25.9721 0.0140535 25.3033C0.201626 24.6345 0.823865 24.1819 1.51795 24.2095C3.94517 24.3061 6.34819 23.8296 8.53764 22.8342C6.37492 21.4871 4.81278 19.8918 3.723 18.1711C2.25466 15.8527 1.70068 13.3971 1.6005 11.1931C1.50062 8.99574 1.84966 7.01774 2.2164 5.5997C2.40067 4.8872 2.59188 4.30659 2.73934 3.89871C2.81316 3.69453 2.87627 3.53293 2.92244 3.41897C2.94553 3.36197 2.96441 3.31682 2.9783 3.28416L2.99531 3.24457L3.00084 3.23194L3.00282 3.22743L3.00362 3.22563C3.00396 3.22486 3.00428 3.22414 4.375 3.83335L5.60253 2.97128C6.93375 4.86686 8.7131 6.40379 10.7821 7.44519C12.4144 8.26675 14.1869 8.7598 15.9994 8.90187C15.9978 7.29093 16.4805 5.71581 17.3862 4.3817C18.3105 3.02013 19.6307 1.97528 21.1681 1.38845ZM4.9889 6.89706C4.72959 8.05126 4.52667 9.50059 4.59741 11.0569C4.67952 12.8634 5.12814 14.7828 6.25746 16.5659C7.38074 18.3395 9.23448 20.0692 12.2759 21.421C12.7736 21.6422 13.1123 22.1158 13.1607 22.6583C13.2092 23.2008 12.9597 23.7269 12.5091 24.0328C10.9282 25.1059 9.20114 25.9202 7.39247 26.4573C11.9566 27.5832 16.5201 27.0122 20.2588 25.0222C25.3944 22.2888 29.1243 16.7991 29.125 8.93978C29.1238 8.62732 29.0937 8.31564 29.035 8.00873C28.941 7.51693 29.0986 7.01066 29.4551 6.65909C29.7441 6.3741 30.014 6.07235 30.2637 5.75585C29.977 5.85893 29.6873 5.95455 29.395 6.04256C28.83 6.21268 28.2178 6.03581 27.8307 5.59062C27.154 4.8126 26.2548 4.26116 25.2545 4.01088C24.2542 3.7606 23.2012 3.82356 22.2379 4.19124C21.2746 4.55891 20.4474 5.21357 19.8683 6.06667C19.2892 6.91977 18.986 7.93015 18.9999 8.96116L19 8.98127V10.4396C19 11.2529 18.3519 11.918 17.5389 11.9391C14.7288 12.012 11.9443 11.3887 9.43333 10.1249C7.78146 9.29345 6.28173 8.20174 4.9889 6.89706Z" fill="#6B7280"/>
</svg>
